<svg width="1440" height="966" viewBox="0 0 1440 966" fill="none" xmlns="http://www.w3.org/2000/svg">
<g opacity="0.03" clip-path="url(#clip0)">
<path d="M173.706 418.91L316.847 275.756L418.089 377.032C418.75 377.693 419.411 378.328 420.046 379.015C430.463 389.946 436.193 404.516 436.012 419.615C435.832 434.714 429.755 449.143 419.08 459.822L316.847 562.064L275.888 602.976L212.097 666.747L210.14 668.73C205.983 672.478 200.828 674.94 195.301 675.817C189.773 676.694 184.11 675.949 178.997 673.672C173.884 671.396 169.541 667.685 166.495 662.99C163.448 658.294 161.829 652.816 161.833 647.219V442.887C161.817 435.379 164.737 428.161 169.968 422.775L170.146 422.571L170.452 422.266L170.655 422.088L173.706 418.91Z" fill="url(#paint0_linear)"/>
<path d="M96.1637 418.91L-46.9777 275.756L-148.219 377.032C-148.88 377.693 -149.541 378.328 -150.177 379.015C-160.593 389.946 -166.323 404.516 -166.143 419.615C-165.962 434.714 -159.886 449.143 -149.211 459.822L-46.9777 562.064L-6.01841 602.976L57.7723 666.747L59.73 668.73C63.8869 672.478 69.0414 674.94 74.569 675.817C80.0966 676.694 85.7599 675.949 90.8727 673.672C95.9855 671.396 100.328 667.685 103.375 662.99C106.421 658.294 108.041 652.816 108.037 647.219V442.887C108.052 435.379 105.133 428.161 99.9011 422.775L99.7231 422.571L99.4181 422.266L99.2147 422.088L96.1637 418.91Z" fill="black"/>
<path d="M275.888 234.869L161.73 349.113L153.264 357.58C147.838 363.003 140.481 366.05 132.81 366.05C125.139 366.05 117.781 363.003 112.356 357.58L-10.3188 234.869L92.8294 131.636C96.1608 128.471 99.8563 125.714 103.838 123.423C112.626 118.343 122.596 115.668 132.746 115.668C142.896 115.668 152.867 118.343 161.654 123.423C165.636 125.714 169.332 128.471 172.663 131.636L174.621 133.619L275.888 234.869Z" fill="black"/>
</g>
<circle cx="1165" cy="781" r="6" fill="#1C135F" fill-opacity="0.06"/>
<circle cx="1165" cy="813" r="6" fill="#1C135F" fill-opacity="0.06"/>
<circle cx="1165" cy="845" r="6" fill="#1C135F" fill-opacity="0.06"/>
<circle cx="1293" cy="781" r="6" fill="#1C135F" fill-opacity="0.06"/>
<circle cx="1293" cy="813" r="6" fill="#1C135F" fill-opacity="0.06"/>
<circle cx="1293" cy="845" r="6" fill="#1C135F" fill-opacity="0.06"/>
<circle cx="1229" cy="781" r="6" fill="#1C135F" fill-opacity="0.06"/>
<circle cx="1229" cy="813" r="6" fill="#1C135F" fill-opacity="0.06"/>
<circle cx="1229" cy="845" r="6" fill="#1C135F" fill-opacity="0.06"/>
<circle cx="1197" cy="781" r="6" fill="#1C135F" fill-opacity="0.06"/>
<circle cx="1197" cy="813" r="6" fill="#1C135F" fill-opacity="0.06"/>
<circle cx="1197" cy="845" r="6" fill="#1C135F" fill-opacity="0.06"/>
<circle cx="1325" cy="781" r="6" fill="#1C135F" fill-opacity="0.06"/>
<circle cx="1325" cy="813" r="6" fill="#1C135F" fill-opacity="0.06"/>
<circle cx="1325" cy="845" r="6" fill="#1C135F" fill-opacity="0.06"/>
<circle cx="1261" cy="781" r="6" fill="#1C135F" fill-opacity="0.06"/>
<circle cx="1261" cy="813" r="6" fill="#1C135F" fill-opacity="0.06"/>
<circle cx="1261" cy="845" r="6" fill="#1C135F" fill-opacity="0.06"/>
<defs>
<linearGradient id="paint0_linear" x1="298.924" y1="275.756" x2="298.924" y2="676.174" gradientUnits="userSpaceOnUse">
<stop/>
<stop offset="1" stop-opacity="0"/>
</linearGradient>
<clipPath id="clip0">
<rect width="838" height="792" fill="white" transform="translate(-286 0.000244141)"/>
</clipPath>
</defs>
</svg>
