<svg width="1440" height="700" viewBox="0 0 1440 700" fill="none" xmlns="http://www.w3.org/2000/svg">
<mask id="mask0" mask-type="alpha" maskUnits="userSpaceOnUse" x="0" y="0" width="1440" height="700">
<rect width="1440" height="700" fill="#F4F4FE"/>
</mask>
<g mask="url(#mask0)">
<rect x="1179" y="433" width="320" height="320" stroke="url(#paint0_linear)" stroke-width="80"/>
<circle cx="1158" cy="2" r="6" fill="white" fill-opacity="0.1"/>
<circle cx="1158" cy="34" r="6" fill="white" fill-opacity="0.1"/>
<circle cx="1158" cy="66" r="6" fill="white" fill-opacity="0.1"/>
<circle cx="1286" cy="2" r="6" fill="white" fill-opacity="0.1"/>
<circle cx="1286" cy="34" r="6" fill="white" fill-opacity="0.1"/>
<circle cx="1286" cy="66" r="6" fill="white" fill-opacity="0.1"/>
<circle cx="1222" cy="2" r="6" fill="white" fill-opacity="0.1"/>
<circle cx="1222" cy="34" r="6" fill="white" fill-opacity="0.1"/>
<circle cx="1222" cy="66" r="6" fill="white" fill-opacity="0.1"/>
<circle cx="1190" cy="2" r="6" fill="white" fill-opacity="0.1"/>
<circle cx="1190" cy="34" r="6" fill="white" fill-opacity="0.1"/>
<circle cx="1190" cy="66" r="6" fill="white" fill-opacity="0.1"/>
<circle cx="1318" cy="2" r="6" fill="white" fill-opacity="0.1"/>
<circle cx="1318" cy="34" r="6" fill="white" fill-opacity="0.1"/>
<circle cx="1318" cy="66" r="6" fill="white" fill-opacity="0.1"/>
<circle cx="1254" cy="2" r="6" fill="white" fill-opacity="0.1"/>
<circle cx="1254" cy="34" r="6" fill="white" fill-opacity="0.1"/>
<circle cx="1254" cy="66" r="6" fill="white" fill-opacity="0.1"/>
<circle cx="40" cy="110" r="160" stroke="url(#paint1_linear)" stroke-width="80"/>
</g>
<defs>
<linearGradient id="paint0_linear" x1="1139" y1="393" x2="1382.5" y2="644" gradientUnits="userSpaceOnUse">
<stop stop-color="white" stop-opacity="0.1"/>
<stop offset="1" stop-color="white" stop-opacity="0"/>
</linearGradient>
<linearGradient id="paint1_linear" x1="240" y1="-90" x2="40" y2="310" gradientUnits="userSpaceOnUse">
<stop stop-color="white" stop-opacity="0"/>
<stop offset="1" stop-color="white" stop-opacity="0.06"/>
</linearGradient>
</defs>
</svg>
