<svg width="34" height="34" viewBox="0 0 34 34" fill="none" xmlns="http://www.w3.org/2000/svg">
<path d="M26.7785 1.17342C26.1868 0.133418 24.4768 0.135085 23.8852 1.17342L17.2202 12.8401C16.9252 13.3568 16.9268 13.9901 17.2252 14.5034C17.5235 15.0168 18.0735 15.3334 18.6668 15.3334H32.0002C32.5935 15.3334 33.1435 15.0168 33.4418 14.5034C33.7402 13.9884 33.7418 13.3568 33.4468 12.8401L26.7785 1.17342ZM2.00016 33.6668H13.6668C14.5885 33.6668 15.3335 32.9218 15.3335 32.0001V20.3334C15.3335 19.4118 14.5885 18.6668 13.6668 18.6668H2.00016C1.0785 18.6668 0.333496 19.4118 0.333496 20.3334V32.0001C0.333496 32.9218 1.0785 33.6668 2.00016 33.6668ZM26.1668 18.6668C22.0318 18.6668 18.6668 22.0318 18.6668 26.1668C18.6668 30.3018 22.0318 33.6668 26.1668 33.6668C30.3018 33.6668 33.6668 30.3018 33.6668 26.1668C33.6668 22.0318 30.3018 18.6668 26.1668 18.6668Z" fill="#57D28F"/>
</svg>
