<svg width="34" height="34" viewBox="0 0 34 34" fill="none" xmlns="http://www.w3.org/2000/svg">
<path d="M2.4985 26.3267C3.2185 28.5467 5.40683 29.9634 7.74183 29.9634H7.8335C8.26016 32.0734 10.1302 33.6667 12.3718 33.6667C13.1335 33.6667 13.8452 33.4751 14.4752 33.1451C15.0135 32.8617 15.3335 32.2834 15.3335 31.6751V2.04507C15.3335 1.26007 14.7935 0.561734 14.0252 0.406734C13.2635 0.251734 12.4152 0.333401 11.5602 0.741734C10.3202 1.33507 9.5935 2.66007 9.5935 4.0384V4.13007C9.29683 4.0734 8.98016 4.0384 8.66683 4.0384C6.11183 4.0384 4.0385 6.11173 4.0385 8.66673C4.0385 9.74173 4.4085 10.7401 5.02016 11.5184C2.37183 11.9267 0.333496 14.2217 0.333496 17.0001C0.333496 18.9634 1.35183 20.6851 2.8885 21.6867C2.17183 22.9717 1.93683 24.5967 2.4985 26.3267ZM28.9802 11.5184C29.5935 10.7401 29.9618 9.74173 29.9618 8.66673C29.9618 6.11173 27.8885 4.0384 25.3335 4.0384C25.0202 4.0384 24.7035 4.0734 24.4068 4.13007V4.0384C24.4068 2.66173 23.6785 1.33507 22.4385 0.741734C21.5852 0.333401 20.7368 0.251734 19.9752 0.406734C19.2068 0.563401 18.6668 1.26173 18.6668 2.04507V31.6734C18.6668 32.2817 18.9868 32.8601 19.5268 33.1434C20.1568 33.4751 20.8668 33.6667 21.6285 33.6667C23.8702 33.6667 25.7402 32.0734 26.1668 29.9617H26.2602C28.5935 29.9617 30.7835 28.5451 31.5035 26.3251C32.0652 24.5951 31.8302 22.9701 31.1135 21.6851C32.6485 20.6851 33.6668 18.9634 33.6668 17.0001C33.6668 14.2217 31.6285 11.9267 28.9802 11.5184Z" fill="#57D28F"/>
</svg>
